<svg width="140" height="38" viewBox="0 0 140 38" fill="none" xmlns="http://www.w3.org/2000/svg">
<g clip-path="url(#clip0_1266_6727)">
<path d="M51.7017 37.8L59.9873 12.3889C60.0351 12.2412 60.3274 10.9485 58.7755 10.5053L59.307 8.88013H75.0385C79.7952 8.88013 80.8263 10.8007 79.7314 14.1618L76.4204 24.3188C75.2033 28.0492 73.3325 29.896 68.1879 29.896H62.0972L59.5196 37.8H51.7017ZM68.0497 11.6608L63.1389 26.8568H65.5837C66.5297 26.8568 67.9381 26.5244 68.6981 24.1975L71.9082 14.2093C72.5938 12.104 71.6637 11.6608 70.5264 11.6608H68.0497Z" fill="#E4E8F1"/>
<path d="M86.4918 29.896H78.6738L87.1667 3.47186C87.2624 3.17638 87.0179 2.32688 85.7849 1.62513L86.6406 0L95.8775 0.738694L86.4918 29.896Z" fill="#E4E8F1"/>
<path d="M110.265 29.896H103.069L102.968 28.3078C101.665 29.305 99.4545 29.896 95.0593 29.896C92.4869 29.896 90.462 28.7141 91.5356 25.4269L93.1034 20.6254C94.177 17.3382 96.5049 16.1932 99.2047 16.1932H106.922L107.246 15.196C108.139 12.4628 107.714 11.4656 105.954 11.4656H97.7485L98.5935 8.88013H106.799C114.516 8.88013 116.871 9.65576 114.596 16.6364L110.27 29.896H110.265ZM99.6246 24.7884C99.0825 26.4505 99.6671 26.8568 100.576 26.8568C101.485 26.8568 103.148 26.155 103.988 25.3794L105.954 19.2588H103.217C102.043 19.2588 101.176 19.9236 100.693 21.401L99.6193 24.7884H99.6246Z" fill="#E4E8F1"/>
<path d="M113.06 37.8L118.874 30.2653L118.423 8.88013H126.368L126.225 20.81L135.456 8.88013H140.006L117.514 37.8H113.065H113.06Z" fill="#E4E8F1"/>
<path d="M24.0758 16.3357H28.1628L24.4531 26.4505H20.4033L24.0758 16.3357Z" fill="#E4E8F1"/>
<path d="M54.6086 14.0879C55.2411 14.0879 55.6078 13.898 55.8682 13.4442L57.0321 11.3548H45.4992C44.5532 11.3548 40.2748 11.3495 39.0737 15.2118H41.2846C41.6779 14.7369 42.4858 14.109 44.0005 14.0932H46.3017C46.3017 14.0932 43.8835 20.7626 42.8897 23.4852C42.8578 23.5643 42.8046 23.7068 42.7409 23.8862C42.5974 24.2819 42.1881 24.5457 41.4707 24.5457H33.5783L31.6916 20.4882C31.6916 20.4882 37.2933 18.6573 37.7025 15.407C37.7822 14.7791 37.7291 13.8663 36.9478 12.9482C36.9478 12.9482 35.7095 11.3073 31.2026 11.3548H17.6183C17.6183 11.3548 8.56199 11.0171 12.1707 18.652C12.1707 18.652 13.1167 20.2455 13.021 21.5329C12.9413 22.6515 11.9528 23.6329 9.66214 23.6751H2.36504C1.72196 23.6751 1.35525 23.8703 1.09483 24.3399L0 26.3028H10.1511C10.1511 26.3028 13.6269 26.308 15.2957 25.0628C16.4278 24.2186 17.5864 22.5301 16.9592 20.2033C16.9592 20.2033 16.7785 19.4751 16.1461 18.2404C15.1735 16.3515 14.6845 14.0299 18.2188 14.0299H30.9422C30.9422 14.0299 32.7492 13.9666 33.0468 15.5917C33.0468 15.5917 33.4773 17.449 30.6924 18.8208C30.6924 18.8208 28.1307 19.9605 27.2963 20.0555L29.8261 25.2844C29.8261 25.2844 30.2354 26.3028 31.6703 26.3028H42.9481C42.9481 26.3028 46.0254 26.6088 47.1255 23.0842L50.394 14.0932H54.6192L54.6086 14.0879Z" fill="#E4E8F1"/>
</g>
<defs>
<clipPath id="clip0_1266_6727">
<rect width="140" height="37.8" fill="white"/>
</clipPath>
</defs>
</svg>
