<svg width="110" height="30" viewBox="0 0 110 30" fill="none" xmlns="http://www.w3.org/2000/svg">
<g clip-path="url(#clip0_1266_6630)">
<path d="M46.4328 9.3877H54.3133L47.1616 29.0406H39.3555L46.4328 9.3877Z" fill="#E4E8F1"/>
<path d="M105.32 5.31731C106.542 5.31731 107.243 4.94795 107.752 4.06546L110 0.00496939H87.7516C85.9246 0.00496939 77.6723 -0.0074256 75.3594 7.49629H79.6257C80.3892 6.57661 81.946 5.35698 84.8612 5.32227L89.2985 5.31484C89.2985 5.31484 84.6381 18.2722 82.712 23.5697C82.6549 23.7234 82.5483 24.001 82.4244 24.3481C82.1468 25.119 81.356 25.6321 79.9777 25.6346H64.7546L61.118 17.7566C61.118 17.7566 71.9237 14.1968 72.712 7.88301C72.8632 6.66833 72.764 4.88598 71.2618 3.10363C71.2618 3.10363 68.877 -0.0892299 60.1859 0.00744832H33.9911C33.9911 0.00744832 16.5221 -0.646989 23.4804 14.182C23.4804 14.182 25.3024 17.2806 25.1264 19.7819C24.9727 21.9559 23.0689 23.8647 18.649 23.939H4.56371C3.32672 23.939 2.62023 24.3158 2.11205 25.2256L0 29.0407H19.5736C19.5736 29.0407 26.2766 29.0531 29.4993 26.6361C31.6857 24.9951 33.9217 21.7154 32.707 17.2013C32.707 17.2013 32.3599 15.7908 31.1378 13.3912C29.2662 9.71989 28.3242 5.20824 35.1314 5.20824L59.6678 5.21816C59.6678 5.21816 63.1557 5.08677 63.7283 8.23749C63.7283 8.23749 64.5588 11.8419 59.1844 14.5092C59.1844 14.5092 54.2464 16.7204 52.6301 16.9038L57.5087 27.06C57.5087 27.06 58.2995 29.0357 61.0635 29.0357H82.8185C82.8185 29.0357 88.7581 29.6307 90.88 22.7814L97.179 5.31236H105.327L105.32 5.31731Z" fill="#E4E8F1"/>
</g>
<defs>
<clipPath id="clip0_1266_6630">
<rect width="110" height="29.0531" fill="white"/>
</clipPath>
</defs>
</svg>
