<svg width="200" height="130" viewBox="0 0 200 130" fill="none" xmlns="http://www.w3.org/2000/svg">
<rect width="200" height="130" rx="16" fill="#F1F3F6"/>
<circle cx="91" cy="65" r="43" fill="white" stroke="#ABB0BB" stroke-width="4"/>
<circle cx="91" cy="65" r="32" fill="#F6F7F9"/>
<g clip-path="url(#clip0_1452_8613)">
<path d="M80.4149 60.6589L78.4395 51.5003C78.4507 51.5001 78.4625 51.5 78.4748 51.5H81.117C81.1301 51.5 81.1421 51.5 81.1532 51.5L83.0835 60.8652L83.1658 61.2643H83.5732H87.4994H87.9021L87.9879 60.8708L90.0299 51.5043C90.0304 51.5028 90.0308 51.5014 90.0313 51.5H93.0072C93.0132 51.5 93.0189 51.5 93.0244 51.5C93.0249 51.5015 93.0254 51.503 93.0259 51.5045L95.0303 60.8689L95.1149 61.2643H95.5192H99.4454H99.8528L99.9351 60.8652L101.865 51.5004C101.877 51.5001 101.889 51.5 101.902 51.5H104.562C104.568 51.5 104.574 51.5 104.579 51.5001L102.622 60.6598L102.493 61.2643H103.111H106.5V63.7628H102.404V64.2628L101.915 64.1593L99.0915 77.4972C99.0913 77.4979 99.091 77.4987 99.0908 77.4995C99.0741 77.4998 99.0559 77.5 99.036 77.5H96.2449C96.2111 77.5 96.1808 77.5 96.1531 77.4999C96.1527 77.4988 96.1524 77.4977 96.152 77.4965L93.2914 64.158L93.2067 63.7628H92.8025H90.1789H89.7747L89.69 64.158L86.8294 77.4965C86.8291 77.4973 86.8289 77.4981 86.8286 77.4989C86.8013 77.4996 86.7706 77.5 86.7365 77.5H83.9454C83.9256 77.5 83.9075 77.5 83.8908 77.5C83.8905 77.499 83.8902 77.4981 83.8899 77.4972L81.0666 64.1593L80.9827 63.7628H80.5774H76.5V61.2643H79.9262H80.5455L80.4149 60.6589ZM104.803 51.5182C104.803 51.5182 104.802 51.518 104.801 51.5176L104.803 51.5182ZM83.8279 64.364L85.007 70.0676L84.8906 70.6135H85.5084H85.527H86.1409L86.0287 70.0707L87.2441 64.367L87.3729 63.7628H86.7551H84.3175H83.7036L83.8279 64.364ZM92.0396 61.2643H92.6546L92.5291 60.6623L91.9895 58.073H91.0105L90.4709 60.6623L90.3454 61.2643H90.9604H90.979H92.0396ZM95.8117 64.367L97.0271 70.0707L96.9149 70.6135H97.5288H97.5474H98.1652L98.0489 70.0676L99.2279 64.364L99.3522 63.7628H98.7383H96.3007H95.683L95.8117 64.367Z" fill="#ABB0BB" stroke="#ABB0BB"/>
</g>
<rect x="114" y="71" width="38" height="12" rx="6" fill="white" stroke="#ABB0BB" stroke-width="4"/>
<rect x="114" y="83" width="38" height="12" rx="6" fill="white" stroke="#ABB0BB" stroke-width="4"/>
<rect x="114" y="95" width="38" height="12" rx="6" fill="white" stroke="#ABB0BB" stroke-width="4"/>
<defs>
<clipPath id="clip0_1452_8613">
<rect width="31" height="27" fill="white" transform="translate(76 51)"/>
</clipPath>
</defs>
</svg>
