<svg width="100" height="100" viewBox="0 0 100 100" fill="none" xmlns="http://www.w3.org/2000/svg">
<rect width="100" height="100" rx="20" fill="white"/>
<g clip-path="url(#clip0_1494_6949)">
<path d="M39.3901 62L44.4207 45.866C44.4497 45.7722 44.6272 44.9514 43.685 44.67L44.0077 43.6382H53.559C56.4469 43.6382 57.0729 44.8576 56.4082 46.9916L54.3979 53.4405C53.659 55.809 52.5232 56.9816 49.3996 56.9816H45.7017L44.1367 62H39.3901ZM49.3157 45.4037L46.3342 55.0519H47.8185C48.3929 55.0519 49.248 54.8409 49.7094 53.3635L51.6584 47.0218C52.0746 45.6851 51.5099 45.4037 50.8194 45.4037H49.3157V45.4037Z" fill="#7030A0"/>
<path d="M60.5127 56.9816H55.7661L60.9225 40.2044C60.9806 40.0168 60.8322 39.4774 60.0836 39.0318L60.6031 38L66.2112 38.469L60.5127 56.9816Z" fill="#7030A0"/>
<path d="M74.9461 56.9816H70.5771L70.5158 55.9732C69.7252 56.6064 68.3828 56.9816 65.7143 56.9816C64.1525 56.9816 62.9231 56.2311 63.5749 54.144L64.5268 51.0955C65.1786 49.0084 66.592 48.2814 68.2312 48.2814H72.9165L73.1133 47.6482C73.6554 45.9129 73.3973 45.2797 72.3292 45.2797H67.347L67.8601 43.6382H72.8423C77.5276 43.6382 78.957 44.1306 77.576 48.5628L74.9494 56.9816H74.9461ZM68.4861 53.7387C68.157 54.794 68.5119 55.0519 69.0637 55.0519C69.6155 55.0519 70.6255 54.6064 71.1353 54.1139L72.3292 50.2278H70.6674C69.9543 50.2278 69.4283 50.6499 69.1347 51.5879L68.4829 53.7387H68.4861Z" fill="#7030A0"/>
<path d="M76.6433 62L80.1734 57.2161L79.8991 43.6382H84.7232L84.6361 51.2127L90.241 43.6382H93.0031L79.3474 62H76.6465H76.6433Z" fill="#7030A0"/>
<path d="M22.6174 48.3719H25.0988L22.8465 54.794H20.3877L22.6174 48.3719Z" fill="#7030A0"/>
<path d="M41.1552 46.9447C41.5392 46.9447 41.7619 46.8241 41.92 46.536L42.6266 45.2094H35.6245C35.0501 45.2094 32.4526 45.206 31.7233 47.6583H33.0657C33.3045 47.3568 33.7949 46.9581 34.7146 46.9481H36.1118C36.1118 46.9481 34.6436 51.1826 34.0402 52.9112C34.0208 52.9615 33.9885 53.0519 33.9498 53.1658C33.8627 53.4171 33.6142 53.5846 33.1786 53.5846H28.3868L27.2413 51.0084C27.2413 51.0084 30.6424 49.8459 30.8908 47.7822C30.9392 47.3836 30.907 46.804 30.4326 46.2211C30.4326 46.2211 29.6808 45.1792 26.9445 45.2094H18.6968C18.6968 45.2094 13.1984 44.995 15.3893 49.8425C15.3893 49.8425 15.9637 50.8543 15.9056 51.6717C15.8572 52.3819 15.257 53.005 13.8663 53.0318H9.43592C9.04548 53.0318 8.82283 53.1558 8.66472 53.4539L8 54.7002H14.1632C14.1632 54.7002 16.2735 54.7035 17.2867 53.9129C17.974 53.3769 18.6774 52.3049 18.2967 50.8275C18.2967 50.8275 18.187 50.3652 17.803 49.5812C17.2125 48.3819 16.9156 46.9079 19.0614 46.9079H26.7863C26.7863 46.9079 27.8835 46.8677 28.0642 47.8995C28.0642 47.8995 28.3255 49.0787 26.6347 49.9497C26.6347 49.9497 25.0794 50.6734 24.5728 50.7337L26.1087 54.0536C26.1087 54.0536 26.3572 54.7002 27.2284 54.7002H34.0757C34.0757 54.7002 35.944 54.8945 36.6119 52.6566L38.5964 46.9481H41.1617L41.1552 46.9447Z" fill="#7030A0"/>
</g>
<defs>
<clipPath id="clip0_1494_6949">
<rect width="85" height="24" fill="white" transform="translate(8 38)"/>
</clipPath>
</defs>
</svg>
