<svg width="200" height="130" viewBox="0 0 200 130" fill="none" xmlns="http://www.w3.org/2000/svg">
<rect width="200" height="130" rx="16" fill="#F1F3F6"/>
<rect y="32" width="200" height="14" fill="white"/>
<path d="M31.004 106.392C33.72 106.392 35.904 105.384 37.612 103.34L35.428 100.764C34.308 101.968 32.936 102.808 31.144 102.808C27.868 102.808 25.74 100.092 25.74 95.584C25.74 91.132 28.092 88.444 31.228 88.444C32.796 88.444 34 89.172 35.036 90.18L37.22 87.548C35.876 86.12 33.832 84.888 31.144 84.888C25.908 84.888 21.512 88.892 21.512 95.724C21.512 102.64 25.74 106.392 31.004 106.392ZM43.3863 100.68H50.1063L51.5623 106H55.9023L49.2383 85.28H44.3663L37.7303 106H41.9303L43.3863 100.68ZM48.5943 95.192L49.2103 97.46H44.2823L44.8983 95.192C45.5423 93.036 46.1303 90.684 46.6623 88.416H46.7743C47.4183 90.656 47.9503 93.036 48.5943 95.192ZM64.7958 98.16L69.0518 106H73.6718L68.8278 97.516C71.2078 96.592 72.7758 94.716 72.7758 91.552C72.7758 86.764 69.3598 85.28 64.9918 85.28H57.7678V106H61.9118V98.16H64.7958ZM64.5998 94.884H61.9118V88.556H64.5998C67.2878 88.556 68.7158 89.312 68.7158 91.552C68.7158 93.792 67.2878 94.884 64.5998 94.884ZM81.9778 85.28H76.2938V106H82.2018C88.3058 106 92.2258 102.5 92.2258 95.556C92.2258 88.528 88.3058 85.28 81.9778 85.28ZM81.7258 102.668H80.4378V88.584H81.7258C85.6178 88.584 87.9978 90.488 87.9978 95.556C87.9978 100.596 85.6178 102.668 81.7258 102.668Z" fill="#ABB0BB"/>
<circle cx="164" cy="96" r="14.5" fill="#F1F3F6" stroke="white" stroke-width="3"/>
<circle cx="142" cy="96" r="16" fill="white"/>
</svg>
