<svg width="200" height="130" viewBox="0 0 200 130" fill="none" xmlns="http://www.w3.org/2000/svg">
<rect width="200" height="130" rx="16" fill="#7030A0"/>
<circle cx="91" cy="65" r="43" fill="white" stroke="#5C2189" stroke-width="4"/>
<circle cx="91" cy="65" r="32" fill="#F6F7F9"/>
<g clip-path="url(#clip0_1452_8613)">
<path d="M102.404 64.2628L99.5756 77.6245C99.5198 77.8023 99.4826 77.9012 99.4268 77.9407C99.3709 77.9802 99.2593 78 99.036 78H96.2449C95.9844 78 95.8355 78 95.7983 77.9407C95.7611 77.9012 95.7239 77.8023 95.6681 77.6245L92.8025 64.2628H90.1789L87.3133 77.6245C87.2575 77.8023 87.2203 77.9012 87.1831 77.9407C87.1459 77.9802 86.997 78 86.7365 78H83.9454C83.7407 78 83.6104 78 83.5546 77.9407C83.4988 77.9012 83.4616 77.8023 83.4058 77.6245L80.5774 64.2628H76.4652C76.3535 64.2628 76.2419 64.2233 76.1489 64.1245C76.0558 64.0454 76 63.9268 76 63.8082V61.2189C76 61.1003 76.0558 60.9817 76.1489 60.9026C76.2419 60.8236 76.3535 60.7643 76.4652 60.7643H79.9262L77.9352 51.5337C77.8794 51.3558 77.8794 51.2372 77.9352 51.1384C77.991 51.0593 78.1585 51 78.4748 51H81.117C81.2845 51 81.3962 51 81.4706 51.0593C81.545 51.1186 81.6008 51.1977 81.6381 51.3755L83.5732 60.7643H87.4994L89.5462 51.3755C89.602 51.1977 89.6393 51.0988 89.6951 51.0593C89.7509 51.0198 89.8625 51 90.03 51H93.0072C93.1747 51 93.2863 51 93.3421 51.0593C93.398 51.0988 93.4538 51.1977 93.5096 51.3755L95.5192 60.7643H99.4454L101.381 51.3755C101.418 51.1977 101.492 51.0988 101.548 51.0593C101.604 51.0198 101.734 51 101.902 51H104.562C104.86 51 105.046 51.0395 105.083 51.1384C105.139 51.2174 105.139 51.3558 105.083 51.5337L103.111 60.7643H106.535C106.851 60.7643 107 60.9224 107 61.2189V63.8082C107 63.9268 106.944 64.0454 106.851 64.1245C106.758 64.2035 106.646 64.2628 106.535 64.2628H102.404V64.2628ZM85.5084 70.1135L86.7551 64.2628H84.3175L85.527 70.1135H85.5084ZM90.979 60.7643H92.0396L91.5 58.175L90.9604 60.7643H90.979ZM97.5288 70.1135L98.7383 64.2628H96.3007L97.5474 70.1135H97.5288Z" fill="#5C2189"/>
</g>
<rect x="114" y="71" width="38" height="12" rx="6" fill="white" stroke="#5C2189" stroke-width="4"/>
<rect x="114" y="83" width="38" height="12" rx="6" fill="white" stroke="#5C2189" stroke-width="4"/>
<rect x="114" y="95" width="38" height="12" rx="6" fill="white" stroke="#5C2189" stroke-width="4"/>
<defs>
<clipPath id="clip0_1452_8613">
<rect width="31" height="27" fill="white" transform="translate(76 51)"/>
</clipPath>
</defs>
</svg>
