<svg width="34" height="34" viewBox="0 0 34 34" fill="none" xmlns="http://www.w3.org/2000/svg">
<path d="M18.0862 1.12112C18.0862 1.41189 17.9744 1.69147 17.7619 1.91513L1.91514 17.7619C1.47899 18.198 0.763261 18.198 0.327112 17.7619C-0.109037 17.3257 -0.109037 16.61 0.327112 16.1738L16.185 0.327105C16.6212 -0.109044 17.3257 -0.109044 17.7619 0.327105C17.9856 0.550771 18.0862 0.830354 18.0862 1.12112V1.12112Z" fill="#D7DCE6"/>
<path d="M34.0003 16.9679C34.0003 17.2586 33.8884 17.5382 33.6759 17.7619C33.2398 18.198 32.5353 18.198 32.0991 17.7619L16.2412 1.90395C15.805 1.4678 15.805 0.763255 16.2412 0.327106C16.6773 -0.109043 17.3819 -0.109043 17.818 0.327106L33.6648 16.1738C33.8884 16.3975 33.9891 16.6771 33.9891 16.9679L34.0003 16.9679Z" fill="#D7DCE6"/>
<path d="M18.0862 16.9865C18.0862 17.2773 17.9744 17.5569 17.7619 17.7805L1.91514 33.6273C1.47899 34.0634 0.763261 34.0634 0.327112 33.6273C-0.109037 33.1911 -0.109037 32.4754 0.327112 32.0392L16.185 16.1925C16.6212 15.7563 17.3257 15.7563 17.7619 16.1925C17.9856 16.4162 18.0862 16.6957 18.0862 16.9865V16.9865Z" fill="#D7DCE6"/>
<path d="M34.0003 32.8332C34.0003 33.124 33.8884 33.4036 33.6759 33.6273C33.2398 34.0634 32.5353 34.0634 32.0991 33.6273L16.2412 17.7693C15.805 17.3332 15.805 16.6286 16.2412 16.1925C16.6773 15.7563 17.3819 15.7563 17.818 16.1925L33.6648 32.0392C33.8884 32.2629 33.9891 32.5425 33.9891 32.8332L34.0003 32.8332Z" fill="#D7DCE6"/>
</svg>
