<svg width="162" height="90" viewBox="0 0 162 90" fill="none" xmlns="http://www.w3.org/2000/svg">
<rect x="71.4" width="90" height="90" rx="36" fill="#E6E6E8"/>
<path d="M131.121 45.5787C130.974 45.7258 130.773 45.8187 130.541 45.8188L102.257 45.8206C101.808 45.8206 101.437 45.449 101.437 45C101.437 44.551 101.808 44.1793 102.257 44.1793L130.541 44.1775C130.99 44.1775 131.361 44.5491 131.361 44.9981C131.361 45.2303 131.268 45.4316 131.121 45.5787Z" fill="#A3A4A7"/>
<path d="M116.979 59.7213C116.832 59.8684 116.63 59.9613 116.398 59.9613C115.949 59.9613 115.578 59.5897 115.578 59.1407L115.579 30.8574C115.579 30.4084 115.951 30.0368 116.4 30.0368C116.849 30.0367 117.221 30.4083 117.221 30.8574L117.219 59.1406C117.219 59.3729 117.126 59.5742 116.979 59.7213Z" fill="#A3A4A7"/>
<g clip-path="url(#clip0_37_8)">
<path d="M18.4884 0H71.5116C81.7078 0 90 8.2784 90 18.4884V71.5116C90 81.7216 81.7216 90 71.5116 90H18.4884C8.2922 90 0 81.7216 0 71.5116V18.4884C0 8.2784 8.2784 0 18.4884 0Z" fill="url(#paint0_radial_37_8)"/>
<path d="M54.3339 20.6821H35.6661C27.3877 20.6821 20.6822 27.3876 20.6822 35.666V54.3338C20.6822 62.6122 27.3877 69.3177 35.6661 69.3177H54.3339C62.6123 69.3177 69.3178 62.6122 69.3178 54.3338V35.666C69.3178 27.3876 62.6123 20.6821 54.3339 20.6821V20.6821ZM64.6543 52.5402C64.6543 59.2319 59.2319 64.6542 52.554 64.6542H37.4735C30.7818 64.6542 25.3595 59.2319 25.3595 52.5402V37.4597C25.3595 30.7818 30.7818 25.3594 37.4735 25.3594H52.554C59.2319 25.3594 64.6543 30.7818 64.6543 37.4597V52.5402Z" fill="white"/>
<path d="M45.6554 32.272C38.5773 32.272 32.8376 37.9979 32.8376 45.0759C32.8376 52.1539 38.5773 57.8798 45.6554 57.8798C52.7334 57.8798 58.4593 52.1401 58.4593 45.0759C58.4593 38.0117 52.7196 32.272 45.6554 32.272ZM45.6554 52.7886C41.392 52.7886 37.9427 49.3393 37.9427 45.0897C37.9427 40.8401 41.392 37.377 45.6554 37.377C49.9187 37.377 53.3681 40.8263 53.3681 45.0897C53.3681 49.3531 49.9187 52.7886 45.6554 52.7886Z" fill="white"/>
<path d="M60.8324 32.0787C60.8324 33.8723 59.3699 35.3349 57.5762 35.3349C55.7826 35.3349 54.3201 33.8723 54.3201 32.0787C54.3201 30.285 55.7826 28.8225 57.5762 28.8225C59.3699 28.8225 60.8324 30.285 60.8324 32.0787Z" fill="white"/>
</g>
<defs>
<radialGradient id="paint0_radial_37_8" cx="0" cy="0" r="1" gradientUnits="userSpaceOnUse" gradientTransform="translate(19.9785 110.475) scale(119.25)">
<stop offset="0.1" stop-color="#FFD879"/>
<stop offset="0.15" stop-color="#FCCB75"/>
<stop offset="0.26" stop-color="#F4AA6C"/>
<stop offset="0.4" stop-color="#E8745D"/>
<stop offset="0.45" stop-color="#E45F58"/>
<stop offset="0.68" stop-color="#D22A9C"/>
<stop offset="1" stop-color="#6968DF"/>
</radialGradient>
<clipPath id="clip0_37_8">
<rect width="90" height="90" rx="36" fill="white"/>
</clipPath>
</defs>
</svg>
