<svg width="162" height="90" viewBox="0 0 162 90" fill="none" xmlns="http://www.w3.org/2000/svg">
<rect x="71.4" width="90" height="90" rx="36" fill="#E6E6E8"/>
<rect width="90" height="90" rx="36" fill="#EC4A4A"/>
<path fill-rule="evenodd" clip-rule="evenodd" d="M28 27C22.4772 27 18 31.4772 18 37V53C18 58.5228 22.4772 63 28 63H62C67.5228 63 72 58.5228 72 53V37C72 31.4772 67.5228 27 62 27H28ZM40.5 52.7942L54 45L40.5 37.2058V52.7942Z" fill="white"/>
<path d="M131.121 45.5787C130.974 45.7258 130.773 45.8187 130.541 45.8188L102.257 45.8206C101.808 45.8206 101.437 45.449 101.437 45C101.437 44.551 101.808 44.1793 102.257 44.1793L130.541 44.1775C130.99 44.1775 131.361 44.5491 131.361 44.9981C131.361 45.2303 131.268 45.4316 131.121 45.5787Z" fill="#A3A4A7"/>
<path d="M116.979 59.7213C116.832 59.8684 116.63 59.9613 116.398 59.9613C115.949 59.9613 115.577 59.5897 115.577 59.1407L115.579 30.8574C115.579 30.4084 115.951 30.0368 116.4 30.0368C116.849 30.0367 117.221 30.4083 117.221 30.8574L117.219 59.1406C117.219 59.3729 117.126 59.5742 116.979 59.7213Z" fill="#A3A4A7"/>
</svg>
