<svg width="162" height="90" viewBox="0 0 162 90" fill="none" xmlns="http://www.w3.org/2000/svg">
<rect x="71.4" width="90" height="90" rx="36" fill="#E6E6E8"/>
<rect width="90" height="90" rx="36" fill="#F9DB00"/>
<g clip-path="url(#clip0_1906_7876)">
<path d="M45.0022 17.1001C30.0873 17.1001 18 28.2001 18 41.893C18 52.0072 22.2651 56.833 28.1102 61.2344L28.1361 61.2472V73.1144C28.1361 73.6758 28.7793 73.9972 29.2326 73.6587L39.4722 66.1072L39.6924 66.2015C41.4062 66.5144 43.1804 66.6815 44.9978 66.6815C59.9084 66.6815 71.9957 55.5815 71.9957 41.8887C71.9957 28.1958 59.9127 17.1001 45.0022 17.1001ZM35.9496 48.1758C38.5959 48.1758 40.8579 46.603 41.5443 44.173H45.4554C44.5014 48.8487 40.832 51.913 35.9496 51.913C30.2772 51.913 25.7747 47.713 25.7747 41.863C25.7747 36.013 30.2729 31.813 35.9496 31.813C40.8795 31.813 44.5748 34.9415 45.4857 39.6987H41.5832C40.9918 37.1144 38.6477 35.4987 35.9496 35.4987C32.1335 35.4987 29.5952 38.1987 29.5952 41.863C29.5952 45.5272 32.4789 48.1758 35.9496 48.1758M61.7431 51.5315H58.1557V43.4958C58.1557 41.6487 57.0679 40.6501 55.4016 40.6501C53.5367 40.6501 52.3409 41.7815 52.3409 44.0744V51.5315H48.7535V31.8772H52.3409V39.2701C53.1999 37.9715 54.5943 37.3372 56.4851 37.3372C58.0176 37.3372 59.2652 37.8344 60.2408 38.8544C61.2423 39.8744 61.7431 41.2544 61.7431 43.0501V51.5272V51.5315Z" fill="#010202"/>
</g>
<path d="M131.121 45.5787C130.974 45.7258 130.773 45.8187 130.541 45.8188L102.257 45.8206C101.808 45.8206 101.437 45.449 101.437 45C101.437 44.551 101.808 44.1793 102.257 44.1793L130.541 44.1775C130.99 44.1775 131.361 44.5491 131.361 44.9981C131.361 45.2303 131.268 45.4316 131.121 45.5787Z" fill="#A3A4A7"/>
<path d="M116.979 59.7213C116.832 59.8684 116.63 59.9613 116.398 59.9613C115.949 59.9613 115.577 59.5897 115.577 59.1407L115.579 30.8574C115.579 30.4084 115.951 30.0368 116.4 30.0368C116.849 30.0367 117.221 30.4083 117.221 30.8574L117.219 59.1406C117.219 59.3729 117.126 59.5742 116.979 59.7213Z" fill="#A3A4A7"/>
<defs>
<clipPath id="clip0_1906_7876">
<rect width="54" height="56.7" fill="white" transform="translate(18 17.1001)"/>
</clipPath>
</defs>
</svg>
